<svg xmlns="http://www.w3.org/2000/svg" style="display: none;">

    <symbol id="menu" viewBox="0 0 512 512">
        <line style="fill:none;stroke:currentColor;stroke-width:13.4167;stroke-linecap:round;stroke-linejoin:round;stroke-miterlimit:2.6131;" x1="26.7" x2="486.25" y1="105.643" y2="105.643"/>
        <line style="fill:none;stroke:currentColor;stroke-width:13.4167;stroke-linecap:round;stroke-linejoin:round;stroke-miterlimit:2.6131;" x1="26.7" x2="486.25" y1="256.511" y2="256.511"/>
        <line style="fill:none;stroke:currentColor;stroke-width:13.4167;stroke-linecap:round;stroke-linejoin:round;stroke-miterlimit:2.6131;" x1="26.7" x2="486.25" y1="407.312" y2="407.312"/>
    </symbol>

    <symbol id="close" viewBox="0 0 256 256">
        <path style="fill:currentColor;" d="M202.82861,197.17188a3.99991,3.99991,0,1,1-5.65722,5.65624L128,133.65723,58.82861,202.82812a3.99991,3.99991,0,0,1-5.65722-5.65624L122.343,128,53.17139,58.82812a3.99991,3.99991,0,0,1,5.65722-5.65624L128,122.34277l69.17139-69.17089a3.99991,3.99991,0,0,1,5.65722,5.65624L133.657,128Z"/>
    </symbol>

    <symbol id="arrow" viewBox="0 0 32 32">
        <path style="fill:currentColor" d="M31 0H15v2h13.59L.29 30.29 1.7 31.7 30 3.41V16h2V1a1 1 0 0 0-1-1z"/>
    </symbol>
    
</svg>

